<svg width="74" height="85" viewBox="0 0 74 85" fill="none" xmlns="http://www.w3.org/2000/svg">
<g clip-path="url(#clip0_33_360)">
<path d="M52.9527 0.237793H0V84.6456H67.5659V14.7113L52.9527 0.237793ZM65.4043 14.7186L52.9305 14.7332L52.9527 2.39232L65.4043 14.7186ZM66.0854 83.1799H1.48057V1.70346H51.4721L51.4425 16.1989L66.0854 16.1843V83.1799Z" fill="white"/>
<path d="M73.4662 76.8263H41.6265V71.1395H43.107V75.3606H71.9856V71.1395H73.4662V76.8263Z" fill="white"/>
<path d="M65.4194 62.2795L58.2608 69.3733V36.4838H56.7803V69.3733L49.6439 62.3162L48.6001 63.3495L57.5205 72.1801L66.4632 63.3201L65.4194 62.2795Z" fill="white"/>
<path d="M45.0536 60.5208H6.27002V34.0142H45.0462V60.5208H45.0536ZM7.75059 59.0551H43.5657V35.4798H7.75059V59.0551Z" fill="white"/>
</g>
<defs>
<clipPath id="clip0_33_360">
<rect width="73.466" height="84.4078" fill="white" transform="translate(0 0.237793)"/>
</clipPath>
</defs>
</svg>
