<svg width="157" height="180" viewBox="0 0 157 180" fill="none" xmlns="http://www.w3.org/2000/svg">
<path d="M113.162 0H0V180H144.391V30.8647L113.162 0ZM139.772 30.8804L113.115 30.9116L113.162 4.59455L139.772 30.8804ZM141.227 176.874H3.16405V3.12554H109.998L109.935 34.0372L141.227 34.0059V176.874Z" fill="white"/>
<path d="M157 163.325H88.9572V151.198H92.1212V160.2H153.836V151.198H157V163.325Z" fill="white"/>
<path d="M139.803 132.304L124.505 147.432V77.2947H121.341V147.432L106.091 132.382L103.86 134.586L122.923 153.417L142.034 134.523L139.803 132.304Z" fill="white"/>
<path d="M96.2819 128.554H13.3997V72.0283H96.266V128.554H96.2819ZM16.5637 125.428H93.102V75.1539H16.5637V125.428Z" fill="white"/>
</svg>
