<svg width="73" height="85" viewBox="0 0 73 85" fill="none" xmlns="http://www.w3.org/2000/svg">
<g clip-path="url(#clip0_33_384)">
<path d="M51.2543 35.9341H15.0732V30.8483H51.2543V35.9341ZM16.5381 34.4685H49.7895V32.3139H16.5381V34.4685Z" fill="white"/>
<path d="M51.2543 43.7754H15.0732V38.6896H51.2543V43.7754ZM16.5381 42.3098H49.7895V40.1552H16.5381V42.3098Z" fill="white"/>
<path d="M51.2543 51.6168H15.0732V46.5309H51.2543V51.6168ZM16.5381 50.1511H49.7895V47.9966H16.5381V50.1511Z" fill="white"/>
<path d="M37.5949 59.4655H15.0732V54.3796H37.5876V59.4655H37.5949ZM16.5381 57.9998H36.1227V55.8453H16.5381V57.9998Z" fill="white"/>
<path d="M52.3894 0.237793H0V84.6456H66.8472V14.7113L52.3894 0.237793ZM64.7085 14.7186L52.3674 14.7332L52.3894 2.39232L64.7085 14.7186ZM65.3823 83.1799H1.46482V1.70346H50.9245L50.8952 16.1989L65.3823 16.1843V83.1799Z" fill="white"/>
<path d="M72.6846 76.8262H41.1836V71.1394H42.6484V75.3605H71.2198V71.1394H72.6846V76.8262Z" fill="white"/>
<path d="M64.7234 62.2794L57.641 69.3732V36.4836H56.1761V69.3732L49.1157 62.316L48.083 63.3493L56.9086 72.18L65.7561 63.32L64.7234 62.2794Z" fill="white"/>
</g>
<defs>
<clipPath id="clip0_33_384">
<rect width="72.6845" height="84.4078" fill="white" transform="translate(0 0.237793)"/>
</clipPath>
</defs>
</svg>
