<svg width="155" height="180" viewBox="0 0 155 180" fill="none" xmlns="http://www.w3.org/2000/svg">
<path d="M109.3 76.1225H32.1433V65.2769H109.3V76.1225ZM35.2671 72.9969H106.176V68.4024H35.2671V72.9969Z" fill="white"/>
<path d="M109.3 92.8442H32.1433V81.9985H109.3V92.8442ZM35.2671 89.7186H106.176V85.1241H35.2671V89.7186Z" fill="white"/>
<path d="M109.3 109.566H32.1433V98.72H109.3V109.566ZM35.2671 106.44H106.176V101.846H35.2671V106.44Z" fill="white"/>
<path d="M80.1708 126.303H32.1433V115.458H80.1552V126.303H80.1708ZM35.2671 123.178H77.0315V118.583H35.2671V123.178Z" fill="white"/>
<path d="M111.721 0H0V180H142.552V30.8647L111.721 0ZM137.991 30.8804L111.674 30.9116L111.721 4.59455L137.991 30.8804ZM139.428 176.874H3.12374V3.12554H108.597L108.534 34.0372L139.428 34.0059V176.874Z" fill="white"/>
<path d="M155 163.325H87.824V151.198H90.9477V160.2H151.876V151.198H155V163.325Z" fill="white"/>
<path d="M138.023 132.304L122.919 147.432V77.2947H119.796V147.432L104.739 132.382L102.537 134.586L121.357 153.417L140.225 134.523L138.023 132.304Z" fill="white"/>
</svg>
