<svg width="796" height="147" viewBox="0 0 796 147" fill="none" xmlns="http://www.w3.org/2000/svg">
<path d="M258.016 64.6235C262.662 64.6235 264.979 62.8607 264.979 59.3476C264.979 55.822 262.662 54.0592 258.016 54.0592H218.834C218.176 54.0592 217.657 53.5341 217.657 52.884V39.2817C217.657 38.6316 218.189 38.119 218.834 38.119H262.054C268.992 38.119 274.727 39.7193 279.259 42.9073C283.804 46.0954 286.07 50.9087 286.07 57.3598C286.07 62.4857 284.057 66.4613 280.018 69.3243C278.942 70.187 277.765 70.8871 276.486 71.4122C279.575 72.4123 282.272 74.3627 284.563 77.2882C286.855 80.7513 287.994 84.5644 287.994 88.7526C287.994 95.6663 285.627 100.742 280.879 104.005C276.132 107.256 270.055 108.894 262.662 108.894H218.834C218.176 108.894 217.657 108.368 217.657 107.731V94.1035C217.657 93.4534 218.189 92.9408 218.834 92.9408H222.746H258.32C263.966 92.9408 266.789 90.878 266.789 86.7648C266.789 82.6516 263.966 80.5887 258.32 80.5887H218.834C218.176 80.5887 217.657 80.0636 217.657 79.4135V65.7987C217.657 65.1486 218.189 64.636 218.834 64.636L258.016 64.6235Z" fill="#435177"/>
<path d="M331.594 63.6609L313.01 108.156C312.832 108.594 312.389 108.881 311.921 108.881H293.514C292.665 108.881 292.096 108.018 292.425 107.256L321.998 38.8316C322.188 38.4066 322.618 38.119 323.087 38.119H343.823C344.304 38.119 344.722 38.3941 344.912 38.8316L374.282 107.256C374.611 108.031 374.042 108.881 373.193 108.881H353.47C352.989 108.881 352.558 108.594 352.381 108.156L333.797 63.6609C333.379 62.6982 331.999 62.6982 331.594 63.6609Z" fill="#435177"/>
<path d="M383.752 107.706V39.2817C383.752 38.6316 384.283 38.119 384.929 38.119H403.247C403.906 38.119 404.425 38.6441 404.425 39.2817V107.706C404.425 108.356 403.893 108.869 403.247 108.869H384.929C384.283 108.881 383.752 108.356 383.752 107.706Z" fill="#435177"/>
<path d="M415.439 54.4843V39.2817C415.439 38.6316 415.97 38.119 416.616 38.119H486.712C487.371 38.119 487.902 38.6441 487.902 39.2817V54.4843C487.902 55.1344 487.371 55.6595 486.712 55.6595H463.14C462.482 55.6595 461.963 56.1846 461.963 56.8222V107.706C461.963 108.356 461.431 108.869 460.785 108.869H442.568C441.91 108.869 441.391 108.343 441.391 107.706V56.8222C441.391 56.1721 440.859 55.6595 440.214 55.6595H416.629C415.97 55.6595 415.439 55.1344 415.439 54.4843Z" fill="#435177"/>
<path d="M557.632 110.081C546.668 110.081 537.693 106.643 530.73 99.767C523.767 92.8908 520.286 84.1393 520.286 73.5C520.286 62.6732 523.805 53.8717 530.831 47.0955C537.857 40.3193 546.795 36.9313 557.632 36.9313C568.19 36.9313 576.798 40.0818 583.47 46.3954C587.8 50.4836 590.534 55.1719 591.686 60.4353C591.838 61.1604 591.256 61.848 590.509 61.848H570.962C570.899 61.7855 570.709 61.548 570.405 61.1479C570.101 60.7478 569.848 60.3853 569.646 60.0477C566.354 56.7846 562.341 55.1594 557.644 55.1594C552.53 55.1594 548.542 56.9347 545.681 60.4978C542.82 64.0484 541.389 68.3866 541.389 73.5C541.389 78.6134 542.858 82.9516 545.782 86.5022C548.707 90.0528 552.656 91.8406 557.644 91.8406C563.037 91.8406 567.392 89.7903 570.722 85.7021C570.937 85.427 571.266 85.2645 571.621 85.2645H591.965C591.825 85.8646 591.458 87.2273 590.851 89.3527C588.496 96.0663 584.255 101.192 578.14 104.743C572 108.293 565.164 110.081 557.632 110.081Z" fill="#435177"/>
<path d="M637.16 110.081C626.12 110.081 616.955 106.656 609.663 99.817C602.358 92.9783 598.712 84.2018 598.712 73.5125C598.712 62.5481 602.384 53.7091 609.713 46.9955C617.043 40.2818 626.196 36.9313 637.16 36.9313C648.325 36.9313 657.529 40.3319 664.758 47.1455C671.986 53.9592 675.607 62.7482 675.607 73.5125C675.607 84.3393 671.923 93.1408 664.555 99.917C657.187 106.681 648.059 110.081 637.16 110.081ZM637.16 91.9406C642.477 91.9406 646.718 90.1778 649.87 86.6647C653.035 83.1391 654.617 78.7634 654.617 73.5125C654.617 65.2736 651.25 59.5976 644.527 56.4721C642.236 55.5469 639.78 55.0719 637.16 55.0719C631.843 55.0719 627.602 56.8347 624.449 60.3478C621.284 63.8734 619.702 68.2491 619.702 73.5C619.702 78.8134 621.297 83.2141 624.5 86.7022C627.69 90.1903 631.906 91.9406 637.16 91.9406Z" fill="#435177"/>
<path d="M687.823 107.706V39.2817C687.823 38.6316 688.355 38.119 689.001 38.119H707.319C707.977 38.119 708.497 38.6441 708.497 39.2817V107.706C708.497 108.356 707.965 108.869 707.319 108.869H689.001C688.355 108.881 687.823 108.356 687.823 107.706Z" fill="#435177"/>
<path d="M776.213 58.0974V39.2817C776.213 38.6316 776.745 38.119 777.39 38.119H794.81C795.468 38.119 795.987 38.6441 795.987 39.2817V80.5762C795.987 81.6889 794.557 82.1765 793.86 81.2889L776.441 58.81C776.302 58.61 776.213 58.36 776.213 58.0974ZM796 101.417V107.706C796 108.356 795.468 108.869 794.823 108.869H779.226C778.859 108.869 778.517 108.706 778.289 108.418L746.248 68.0741C745.551 67.199 744.133 67.6865 744.133 68.7992V107.693C744.133 108.343 743.602 108.856 742.956 108.856H725.043C724.384 108.856 723.865 108.331 723.865 107.693V39.2817C723.865 38.6316 724.397 38.119 725.043 38.119H746.387C746.754 38.119 747.108 38.294 747.324 38.5816L796 101.417Z" fill="#435177"/>
<path d="M131.027 60.7478H52.9932V29.7176H103.049V40.1318L86.1235 56.8347H96.2892L110.227 43.0698V22.6163H22.9013V78.3383L18.6476 74.1376V18.3781L114.506 18.4031L114.481 44.32L101.783 56.8347H111.949L121.646 47.258L121.684 11.3144L11.4443 11.3394V67.0364L7.19067 62.8357V7.10121H125.938V8.87651L125.887 48.5083L117.456 56.8347H127.622L133.078 51.4463L133.129 14.615L133.141 12.1021L137.408 16.3153L137.395 18.8157L137.319 52.684L132.901 57.0472L137.99 62.0731L144.51 55.6345L144.573 25.9044L144.586 23.404L148.852 27.6172L148.738 56.8722L140.725 64.7735L145.814 69.7869L154.625 61.0979C155.46 60.2728 155.929 59.1601 155.929 57.9974L156.043 26.517C156.043 25.3418 155.574 24.2166 154.739 23.3915L132.331 1.28772C131.496 0.462579 130.369 0 129.179 0H4.45619C2.00022 0 0 1.97534 0 4.40075V63.5858C0 64.9861 0.557024 66.3238 1.55714 67.3114L25.0914 90.4654H103.049V113.369H110.24V83.3642H30.092V29.7301H34.3456V79.1635H114.506V113.382H114.975L121.697 106.793V72.0498H41.5363V29.7176H45.8026V67.849H125.951V108.056L116.608 117.282H52.9932V94.3661H45.8026V117.282H41.5363V94.3661H34.3456V117.282H30.092V94.3661H22.9013V117.282H18.6476V89.7903L11.457 82.6891V124.371H119.596L121.393 122.596L123.495 120.521L133.141 110.994V72.8624L137.395 77.0631V111.769L119.558 128.722L8.98834 128.597H7.19067V78.4883L0 71.3871V142.587C0 145.025 2.00022 146.988 4.45619 146.988H125.356C126.533 146.988 127.672 146.525 128.508 145.7L154.726 119.82C155.562 118.995 156.03 117.87 156.03 116.707V87.2648C156.03 86.1021 155.562 84.977 154.726 84.1518L131.027 60.7478ZM148.852 115.582L124.229 139.899H7.19067V135.698H8.98834L122.457 135.848L144.586 114.807V84.1768L148.852 88.39V115.582Z" fill="#435177"/>
</svg>
