<svg width="24" height="23" viewBox="0 0 24 23" fill="none" xmlns="http://www.w3.org/2000/svg">
<path fill-rule="evenodd" clip-rule="evenodd" d="M22.5806 5.30342C23.7522 4.13185 23.7522 2.23235 22.5806 1.06078C21.409 -0.110795 19.5095 -0.110795 18.3379 1.06078L11.9161 7.48257L5.49437 1.06079C4.32279 -0.110783 2.4233 -0.110783 1.25173 1.06079C0.0801537 2.23236 0.0801536 4.13186 1.25173 5.30343L7.67351 11.7252L2.08047 17.3182C0.908895 18.4898 0.908895 20.3893 2.08047 21.5609C3.25204 22.7325 5.15154 22.7325 6.32311 21.5609L11.9161 15.9678L17.5092 21.5609C18.6808 22.7325 20.5803 22.7325 21.7518 21.5609C22.9234 20.3893 22.9234 18.4898 21.7518 17.3183L16.1588 11.7252L22.5806 5.30342Z" fill="#009242"/>
</svg>
