<svg width="24" height="23" viewBox="0 0 24 23" fill="none" xmlns="http://www.w3.org/2000/svg">
<path fill-rule="evenodd" clip-rule="evenodd" d="M22.2069 5.12126C23.3785 3.94969 23.3785 2.05019 22.2069 0.878619C21.0353 -0.292954 19.1358 -0.292954 17.9643 0.878619L12.164 6.67887L6.36385 0.878691C5.19228 -0.292882 3.29278 -0.292882 2.12121 0.878691C0.949636 2.05026 0.949636 3.94976 2.12121 5.12133L7.92139 10.9215L1.7068 17.1361C0.535232 18.3077 0.535232 20.2072 1.7068 21.3787C2.87838 22.5503 4.77787 22.5503 5.94945 21.3787L12.164 15.1641L18.3787 21.3788C19.5503 22.5504 21.4497 22.5504 22.6213 21.3788C23.7929 20.2072 23.7929 18.3077 22.6213 17.1362L16.4067 10.9215L22.2069 5.12126Z" fill="#F10505"/>
</svg>
