<svg width="30" height="30" viewBox="0 0 30 30" fill="none" xmlns="http://www.w3.org/2000/svg">
<path d="M30 15.0352C30 23.295 23.2809 29.9758 14.9984 29.9999C6.69634 30.0241 -0.112474 23.1518 0.00140811 14.7827C0.110765 6.71956 6.77326 -0.0517079 15.1448 0.000297588C23.3149 0.0515494 30 6.79342 30 15.0352ZM1.82277 15.0005C1.90045 22.5142 7.90756 28.2559 15.0384 28.2431C21.9702 28.2302 28.1326 22.6167 28.1703 15.0254C28.2065 7.71445 22.305 1.79637 14.9298 1.76848C7.80047 1.74135 1.84992 7.74912 1.82277 15.0005Z" fill="white"/>
<path d="M16.7014 25.5508C15.0648 25.5508 13.4833 25.5508 11.8701 25.5508C11.8701 22.0145 11.8701 18.4999 11.8701 14.9507C11.0827 14.9507 10.3262 14.9507 9.5532 14.9507C9.5532 13.7463 9.5532 12.5781 9.5532 11.3594C10.0532 11.3594 10.5419 11.3571 11.0307 11.3601C11.9885 11.3646 11.8565 11.4136 11.8678 10.519C11.8799 9.5874 11.8422 8.65055 11.9221 7.72425C12.0699 6.01334 13.4599 4.61145 15.1855 4.48182C16.6742 4.36951 18.1721 4.37705 19.6654 4.3371C20.3547 4.31902 20.3547 4.32505 20.3547 5.01996C20.3547 5.90255 20.3547 6.78513 20.3547 7.66696C20.3547 7.7755 20.3547 7.88328 20.3547 8.01668C20.1812 8.02422 20.0342 8.03553 19.8871 8.03628C19.2249 8.03854 18.562 8.02648 17.9006 8.0408C17.0973 8.05814 16.7059 8.46061 16.6976 9.26255C16.6908 9.85421 16.7082 10.4459 16.6969 11.0375C16.6924 11.2697 16.7587 11.3496 17.0023 11.3458C18.0054 11.3322 19.0092 11.3405 20.0123 11.3405C20.1209 11.3405 20.2295 11.3405 20.3939 11.3405C20.2408 12.5562 20.0915 13.7403 19.9399 14.9402C18.8531 14.9402 17.792 14.9402 16.6999 14.9402C16.7014 18.4826 16.7014 22.0069 16.7014 25.5508Z" fill="white"/>
</svg>
