<svg width="30" height="30" viewBox="0 0 30 30" fill="none" xmlns="http://www.w3.org/2000/svg">
<path d="M14.9897 29.9914C12.9074 29.9914 10.8244 30.0132 8.74208 29.9874C3.93697 29.9276 0.0575595 26.0531 0.0229219 21.2504C-0.00764064 17.0831 -0.00764064 12.9151 0.0229219 8.74776C0.0589178 3.93345 3.97296 0.039333 8.78215 0.0155469C12.9128 -0.00552072 17.0442 -0.00484112 21.1749 0.0155469C25.9739 0.0386534 29.9138 3.9219 29.9668 8.73009C30.0136 12.9878 30.0095 17.2469 29.9634 21.5046C29.9199 25.5339 26.6979 29.2079 22.72 29.8446C22.1196 29.9405 21.5057 29.9833 20.8971 29.9887C18.9282 30.0064 16.9587 29.9955 14.9891 29.9955C14.9897 29.9935 14.9897 29.9914 14.9897 29.9914ZM1.77857 15.0354C1.76838 15.0354 1.7582 15.0354 1.74801 15.0354C1.74801 16.9947 1.73782 18.954 1.7548 20.9133C1.75955 21.4543 1.7908 22.0048 1.90014 22.5321C2.61055 25.9553 5.47528 28.253 9.04023 28.2625C13.0011 28.2727 16.9627 28.2652 20.9236 28.2646C21.9179 28.2646 22.8925 28.1259 23.8019 27.7148C26.7794 26.3692 28.2084 23.9926 28.2417 20.7801C28.2824 16.8622 28.2573 12.9429 28.2444 9.02503C28.2423 8.4963 28.1989 7.95738 28.0895 7.44088C27.3689 4.05102 24.5124 1.75261 21.0262 1.74649C17.0082 1.7397 12.9903 1.74174 8.97299 1.74989C8.53357 1.75057 8.09008 1.78999 7.65609 1.85659C4.5292 2.33571 1.9212 5.14926 1.79623 8.31009C1.70726 10.548 1.77857 12.7934 1.77857 15.0354Z" fill="white"/>
<path d="M15.0261 7.66168C19.0828 7.69566 22.3292 11.0196 22.2966 15.1067C22.2647 19.0953 18.9211 22.3941 14.9602 22.3438C10.8934 22.2928 7.61571 18.9723 7.66393 14.9518C7.71283 10.9013 11.0183 7.6277 15.0261 7.66168ZM20.5566 14.9898C20.5484 11.8895 18.0484 9.38651 14.9711 9.39738C11.8924 9.40825 9.39241 11.9262 9.39717 15.0123C9.40192 18.1078 11.9284 20.6176 15.0275 20.6047C18.0824 20.5925 20.5647 18.0711 20.5566 14.9898Z" fill="white"/>
<path d="M23.1843 9.08139C21.6093 9.08955 20.399 7.89481 20.3922 6.32493C20.3854 4.74077 21.5645 3.53924 23.1395 3.52565C24.671 3.51205 25.9661 4.76388 25.9777 6.2692C25.9899 7.83092 24.7552 9.07324 23.1843 9.08139ZM23.1639 7.31239C23.7704 7.30627 24.203 6.8856 24.2051 6.30182C24.2064 5.73775 23.7154 5.25795 23.1361 5.25727C22.5717 5.25659 22.082 5.75814 22.0942 6.32425C22.1064 6.89239 22.5683 7.3185 23.1639 7.31239Z" fill="white"/>
</svg>
