<svg width="25" height="28" viewBox="0 0 25 28" fill="none" xmlns="http://www.w3.org/2000/svg">
<g clip-path="url(#clip0_1827:307)">
<path d="M24.9948 13.9981C24.9948 15.6535 24.9826 17.3089 24.9979 18.9643C25.0131 20.5365 24.3447 21.6832 22.9957 22.4631C20.1694 24.097 17.3492 25.7431 14.5352 27.397C13.1755 28.1969 11.8386 28.2046 10.4774 27.4047C7.62821 25.7339 4.77142 24.0754 1.91767 22.4138C0.654092 21.6771 0.00246238 20.5781 0.000936313 19.1015C-0.00211582 15.6951 -0.00364188 12.2887 0.000936313 8.88085C0.00246238 7.40424 0.655618 6.30835 1.92225 5.57159C4.747 3.9316 7.57327 2.29778 10.3828 0.634672C11.7989 -0.203817 13.1709 -0.217689 14.5932 0.622341C17.3706 2.26541 20.1587 3.88844 22.9545 5.4976C24.3463 6.2991 25.0238 7.46898 25.0009 9.08893C24.9765 10.7258 24.9948 12.3627 24.9948 13.9981ZM24.1998 14.0212C24.1998 12.3288 24.1891 10.6349 24.2028 8.9425C24.212 7.7757 23.7267 6.8956 22.7424 6.3176C19.8138 4.59746 16.8762 2.88965 13.937 1.18647C12.9847 0.634672 12.005 0.639296 11.0542 1.18955C8.11503 2.8912 5.17888 4.60054 2.25036 6.32068C1.28588 6.88789 0.79449 7.7495 0.796016 8.89163C0.799068 12.2965 0.796016 15.7028 0.796016 19.1076C0.796016 20.2467 1.29046 21.1068 2.25951 21.674C5.20635 23.4018 8.1547 25.1266 11.1137 26.8344C12.0263 27.3615 12.9847 27.3584 13.8958 26.8328C16.8548 25.125 19.8032 23.4018 22.7485 21.6709C23.7129 21.1037 24.2074 20.2436 24.2028 19.0999C24.1936 17.4075 24.1982 15.7152 24.1998 14.0212Z" fill="white"/>
<path d="M3.57372 11.6434C3.57372 12.5775 3.57372 13.5131 3.57372 14.4471C3.57372 15.5831 3.57524 16.7175 3.57524 17.8535C3.57524 18.1463 3.59813 18.4916 3.1922 18.4947C2.8 18.4978 2.78627 18.171 2.78627 17.8674C2.78779 15.0575 2.78016 12.2476 2.80153 9.43931C2.80153 9.41465 2.80458 9.38845 2.80916 9.36378C2.88241 9.00311 3.36312 8.88751 3.58745 9.17728C3.61034 9.20657 3.62865 9.23739 3.64239 9.2713C4.91971 12.4187 6.17413 15.5754 7.43314 18.7305C7.47586 18.8369 7.5247 18.9401 7.71088 19.048C7.71088 18.8476 7.71088 18.6473 7.71088 18.4469C7.71088 14.444 7.71088 10.4412 7.71088 6.43832C7.71088 6.32272 7.66815 6.18246 7.71851 6.09768C7.74598 6.05144 7.7765 6.00829 7.81007 5.96513C7.98099 5.74163 8.33962 5.76167 8.4556 6.01753C8.46781 6.04528 8.47544 6.07302 8.47696 6.10077C8.51969 6.84832 8.50138 7.60049 8.50138 8.35112C8.50138 12.6422 8.50443 16.9333 8.48612 21.2244C8.48612 21.2475 8.48459 21.2691 8.48002 21.2922C8.42355 21.6606 7.93368 21.7854 7.70325 21.4926C7.67731 21.4602 7.65747 21.4263 7.64221 21.3893C6.39236 18.3128 5.16998 15.227 3.9415 12.1428C3.86977 11.964 3.79194 11.7899 3.71717 11.6126C3.63781 11.6311 3.65307 11.6265 3.57372 11.6434Z" fill="white"/>
<path d="M11.9593 13.6389C12.5072 13.6389 13.0352 13.6389 13.5632 13.6389C14.4025 13.6389 15.2419 13.6173 16.0782 13.6589C16.1072 13.6604 16.1377 13.6681 16.1667 13.6805C16.4658 13.8115 16.4582 14.2646 16.1606 14.3987C16.1285 14.4142 16.095 14.4219 16.0614 14.4234C14.9763 14.4604 13.8898 14.4419 12.8032 14.4419C12.5392 14.4419 12.2752 14.4419 11.9166 14.4419C11.9166 14.7548 11.9166 15.0168 11.9166 15.2773C11.9166 18.0872 11.9166 20.897 11.9166 23.7054C11.9166 23.8595 11.9593 24.0398 11.8952 24.1601C11.8174 24.3034 11.6449 24.4899 11.5168 24.4853C11.3886 24.4822 11.2268 24.288 11.1536 24.14C11.0925 24.0167 11.1337 23.8379 11.1337 23.6838C11.1337 17.0252 11.1337 10.3666 11.1337 3.70955C11.1337 2.79399 11.2985 2.69072 12.0875 3.11459C13.5495 3.90067 15.016 4.67905 16.4627 5.49288C16.6565 5.60231 16.9007 5.96144 16.8488 6.10941C16.7054 6.52712 16.3773 6.33907 16.098 6.18802C14.9061 5.54837 13.7112 4.90871 12.5163 4.26905C12.3546 4.18274 12.1867 4.10259 11.9578 3.98699V13.6389H11.9593Z" fill="white"/>
<path d="M20.2229 8.42322C20.2229 9.90753 20.2229 11.2716 20.2229 12.6357C20.2229 15.0417 20.2229 17.4478 20.2213 19.8523C20.2213 20.0249 20.2564 20.2191 20.1908 20.3655C20.1252 20.515 19.9298 20.7385 19.8398 20.7185C19.6796 20.6815 19.5102 20.5073 19.4324 20.347C19.3637 20.2068 19.411 20.0079 19.411 19.8353C19.411 16.0821 19.4049 12.329 19.4201 8.57581C19.4217 8.15656 19.3225 7.89454 18.9135 7.73732C18.5594 7.60168 18.21 7.42597 17.9093 7.19785C17.8636 7.1624 17.8315 7.10691 17.8086 7.04063C17.7247 6.80018 17.8849 6.53045 18.1367 6.50887C18.1795 6.50579 18.2191 6.50887 18.2527 6.52582C19.5209 7.1439 20.7799 7.78356 22.0236 8.45096C22.048 8.46329 22.0694 8.48333 22.0877 8.50645C22.2907 8.75152 22.1014 9.12761 21.7855 9.14456C21.7443 9.1461 21.7047 9.14302 21.6696 9.12915C21.2117 8.96114 20.7844 8.70528 20.2229 8.42322Z" fill="white"/>
</g>
<defs>
<clipPath id="clip0_1827:307">
<rect width="25" height="28" fill="white"/>
</clipPath>
</defs>
</svg>
